<svg width="1079" height="583" viewBox="0 0 1079 583" fill="none" xmlns="http://www.w3.org/2000/svg">
<g filter="url(#filter0_d_4_26)">
<rect x="133" y="36" width="387" height="539" rx="9" fill="white"/>
<rect x="135.5" y="38.5" width="382" height="534" rx="6.5" stroke="#2F3AB5" stroke-width="5"/>
</g>
<path d="M141.489 9.90909V12.6364H133.409V9.90909H141.489ZM135.259 23V8.96307C135.259 8.0142 135.443 7.22727 135.812 6.60227C136.188 5.97727 136.699 5.50852 137.347 5.19602C137.994 4.88352 138.73 4.72727 139.554 4.72727C140.111 4.72727 140.619 4.76989 141.08 4.85511C141.545 4.94034 141.892 5.01705 142.119 5.08523L141.472 7.8125C141.33 7.76705 141.153 7.72443 140.943 7.68466C140.739 7.64489 140.528 7.625 140.312 7.625C139.778 7.625 139.406 7.75 139.196 8C138.986 8.24432 138.881 8.58807 138.881 9.03125V23H135.259ZM143.707 23V9.90909H147.337V23H143.707ZM145.531 8.22159C144.991 8.22159 144.528 8.04261 144.141 7.68466C143.761 7.32102 143.57 6.88636 143.57 6.38068C143.57 5.88068 143.761 5.4517 144.141 5.09375C144.528 4.73011 144.991 4.54829 145.531 4.54829C146.07 4.54829 146.531 4.73011 146.911 5.09375C147.298 5.4517 147.491 5.88068 147.491 6.38068C147.491 6.88636 147.298 7.32102 146.911 7.68466C146.531 8.04261 146.07 8.22159 145.531 8.22159ZM153.876 15.4318V23H150.246V9.90909H153.706V12.2188H153.859C154.149 11.4574 154.635 10.8551 155.317 10.4119C155.999 9.96307 156.825 9.73864 157.797 9.73864C158.706 9.73864 159.499 9.9375 160.175 10.3352C160.851 10.733 161.376 11.3011 161.751 12.0398C162.126 12.7727 162.314 13.6477 162.314 14.6648V23H158.683V15.3125C158.689 14.5114 158.484 13.8864 158.07 13.4375C157.655 12.983 157.084 12.7557 156.357 12.7557C155.868 12.7557 155.436 12.8608 155.061 13.071C154.692 13.2812 154.402 13.5881 154.192 13.9915C153.987 14.3892 153.882 14.8693 153.876 15.4318ZM168.908 23.2472C168.073 23.2472 167.329 23.1023 166.675 22.8125C166.022 22.517 165.505 22.0824 165.124 21.5085C164.749 20.929 164.562 20.2074 164.562 19.3438C164.562 18.6165 164.695 18.0057 164.962 17.5114C165.229 17.017 165.593 16.6193 166.053 16.3182C166.513 16.017 167.036 15.7898 167.621 15.6364C168.212 15.483 168.832 15.375 169.479 15.3125C170.241 15.233 170.854 15.1591 171.32 15.0909C171.786 15.017 172.124 14.9091 172.335 14.767C172.545 14.625 172.65 14.4148 172.65 14.1364V14.0852C172.65 13.5455 172.479 13.1278 172.138 12.8324C171.803 12.5369 171.326 12.3892 170.707 12.3892C170.053 12.3892 169.533 12.5341 169.147 12.8239C168.761 13.108 168.505 13.4659 168.38 13.8977L165.022 13.625C165.192 12.8295 165.528 12.142 166.028 11.5625C166.528 10.9773 167.173 10.5284 167.962 10.2159C168.758 9.89773 169.678 9.73864 170.724 9.73864C171.451 9.73864 172.147 9.82386 172.812 9.99432C173.482 10.1648 174.076 10.429 174.593 10.7869C175.116 11.1449 175.528 11.6051 175.829 12.1676C176.13 12.7244 176.281 13.392 176.281 14.1705V23H172.837V21.1847H172.735C172.525 21.5938 172.244 21.9545 171.891 22.267C171.539 22.5739 171.116 22.8153 170.621 22.9915C170.127 23.1619 169.556 23.2472 168.908 23.2472ZM169.948 20.7415C170.482 20.7415 170.954 20.6364 171.363 20.4261C171.772 20.2102 172.093 19.9205 172.326 19.5568C172.559 19.1932 172.675 18.7812 172.675 18.321V16.9318C172.562 17.0057 172.406 17.0739 172.207 17.1364C172.013 17.1932 171.795 17.2472 171.55 17.2983C171.306 17.3437 171.062 17.3864 170.817 17.4261C170.573 17.4602 170.352 17.4915 170.153 17.5199C169.727 17.5824 169.354 17.6818 169.036 17.8182C168.718 17.9545 168.471 18.1392 168.295 18.3722C168.119 18.5994 168.031 18.8835 168.031 19.2244C168.031 19.7188 168.21 20.0966 168.567 20.358C168.931 20.6136 169.391 20.7415 169.948 20.7415ZM182.728 5.54545V23H179.097V5.54545H182.728ZM191.191 27.9091V9.90909H194.771V12.108H194.933C195.092 11.7557 195.322 11.3977 195.623 11.0341C195.93 10.6648 196.327 10.358 196.816 10.1136C197.31 9.86364 197.924 9.73864 198.657 9.73864C199.612 9.73864 200.492 9.98864 201.299 10.4886C202.106 10.983 202.751 11.7301 203.234 12.7301C203.717 13.7244 203.958 14.9716 203.958 16.4716C203.958 17.9318 203.722 19.1648 203.251 20.1705C202.785 21.1705 202.148 21.929 201.342 22.446C200.54 22.9574 199.643 23.2131 198.648 23.2131C197.944 23.2131 197.344 23.0966 196.85 22.8636C196.362 22.6307 195.961 22.3381 195.648 21.9858C195.336 21.6278 195.097 21.267 194.933 20.9034H194.822V27.9091H191.191ZM194.745 16.4545C194.745 17.233 194.853 17.9119 195.069 18.4915C195.285 19.071 195.597 19.5227 196.006 19.8466C196.415 20.1648 196.913 20.3239 197.498 20.3239C198.089 20.3239 198.589 20.1619 198.998 19.8381C199.407 19.5085 199.717 19.054 199.927 18.4744C200.143 17.8892 200.251 17.2159 200.251 16.4545C200.251 15.6989 200.146 15.0341 199.935 14.4602C199.725 13.8864 199.415 13.4375 199.006 13.1136C198.597 12.7898 198.094 12.6278 197.498 12.6278C196.907 12.6278 196.407 12.7841 195.998 13.0966C195.594 13.4091 195.285 13.8523 195.069 14.4261C194.853 15 194.745 15.6761 194.745 16.4545ZM206.379 23V9.90909H209.898V12.1932H210.035C210.273 11.3807 210.674 10.767 211.237 10.3523C211.799 9.93182 212.447 9.72159 213.18 9.72159C213.362 9.72159 213.558 9.73295 213.768 9.75568C213.978 9.77841 214.163 9.80966 214.322 9.84943V13.071C214.151 13.0199 213.915 12.9744 213.614 12.9347C213.313 12.8949 213.038 12.875 212.788 12.875C212.254 12.875 211.776 12.9915 211.356 13.2244C210.941 13.4517 210.612 13.7699 210.367 14.179C210.129 14.5881 210.009 15.0597 210.009 15.5938V23H206.379ZM221.504 23.2557C220.18 23.2557 219.036 22.9744 218.07 22.4119C217.109 21.8437 216.368 21.054 215.845 20.0426C215.322 19.0256 215.061 17.8466 215.061 16.5057C215.061 15.1534 215.322 13.9716 215.845 12.9602C216.368 11.9432 217.109 11.1534 218.07 10.5909C219.036 10.0227 220.18 9.73864 221.504 9.73864C222.828 9.73864 223.97 10.0227 224.93 10.5909C225.896 11.1534 226.641 11.9432 227.163 12.9602C227.686 13.9716 227.947 15.1534 227.947 16.5057C227.947 17.8466 227.686 19.0256 227.163 20.0426C226.641 21.054 225.896 21.8437 224.93 22.4119C223.97 22.9744 222.828 23.2557 221.504 23.2557ZM221.521 20.4432C222.124 20.4432 222.626 20.2727 223.03 19.9318C223.433 19.5852 223.737 19.1136 223.942 18.517C224.152 17.9205 224.257 17.2415 224.257 16.4801C224.257 15.7188 224.152 15.0398 223.942 14.4432C223.737 13.8466 223.433 13.375 223.03 13.0284C222.626 12.6818 222.124 12.5085 221.521 12.5085C220.913 12.5085 220.402 12.6818 219.987 13.0284C219.578 13.375 219.268 13.8466 219.058 14.4432C218.854 15.0398 218.751 15.7188 218.751 16.4801C218.751 17.2415 218.854 17.9205 219.058 18.517C219.268 19.1136 219.578 19.5852 219.987 19.9318C220.402 20.2727 220.913 20.4432 221.521 20.4432ZM230.308 23V9.90909H233.768V12.2188H233.922C234.195 11.4517 234.649 10.8466 235.286 10.4034C235.922 9.96023 236.683 9.73864 237.57 9.73864C238.467 9.73864 239.232 9.96307 239.862 10.4119C240.493 10.8551 240.913 11.4574 241.124 12.2188H241.26C241.527 11.4688 242.01 10.8693 242.709 10.4205C243.413 9.96591 244.246 9.73864 245.206 9.73864C246.428 9.73864 247.419 10.1278 248.18 10.9062C248.947 11.679 249.331 12.7756 249.331 14.196V23H245.709V14.9119C245.709 14.1847 245.516 13.6392 245.129 13.2756C244.743 12.9119 244.26 12.7301 243.68 12.7301C243.021 12.7301 242.507 12.9403 242.138 13.3608C241.768 13.7756 241.584 14.3239 241.584 15.0057V23H238.064V14.8352C238.064 14.1932 237.879 13.6818 237.51 13.3011C237.146 12.9205 236.666 12.7301 236.07 12.7301C235.666 12.7301 235.303 12.8324 234.979 13.0369C234.661 13.2358 234.408 13.517 234.22 13.8807C234.033 14.2386 233.939 14.6591 233.939 15.142V23H230.308ZM252.199 27.9091V9.90909H255.778V12.108H255.94C256.099 11.7557 256.33 11.3977 256.631 11.0341C256.938 10.6648 257.335 10.358 257.824 10.1136C258.318 9.86364 258.932 9.73864 259.665 9.73864C260.619 9.73864 261.5 9.98864 262.307 10.4886C263.114 10.983 263.759 11.7301 264.241 12.7301C264.724 13.7244 264.966 14.9716 264.966 16.4716C264.966 17.9318 264.73 19.1648 264.259 20.1705C263.793 21.1705 263.156 21.929 262.349 22.446C261.548 22.9574 260.651 23.2131 259.656 23.2131C258.952 23.2131 258.352 23.0966 257.858 22.8636C257.369 22.6307 256.969 22.3381 256.656 21.9858C256.344 21.6278 256.105 21.267 255.94 20.9034H255.83V27.9091H252.199ZM255.753 16.4545C255.753 17.233 255.861 17.9119 256.077 18.4915C256.293 19.071 256.605 19.5227 257.014 19.8466C257.423 20.1648 257.92 20.3239 258.506 20.3239C259.097 20.3239 259.597 20.1619 260.006 19.8381C260.415 19.5085 260.724 19.054 260.935 18.4744C261.151 17.8892 261.259 17.2159 261.259 16.4545C261.259 15.6989 261.153 15.0341 260.943 14.4602C260.733 13.8864 260.423 13.4375 260.014 13.1136C259.605 12.7898 259.102 12.6278 258.506 12.6278C257.915 12.6278 257.415 12.7841 257.006 13.0966C256.602 13.4091 256.293 13.8523 256.077 14.4261C255.861 15 255.753 15.6761 255.753 16.4545ZM274.349 9.90909V12.6364H266.466V9.90909H274.349ZM268.256 6.77273H271.886V18.9773C271.886 19.3125 271.938 19.5739 272.04 19.7614C272.142 19.9432 272.284 20.071 272.466 20.1449C272.653 20.2187 272.869 20.2557 273.114 20.2557C273.284 20.2557 273.455 20.2415 273.625 20.2131C273.795 20.179 273.926 20.1534 274.017 20.1364L274.588 22.8381C274.406 22.8949 274.151 22.9602 273.821 23.0341C273.491 23.1136 273.091 23.1619 272.619 23.179C271.744 23.2131 270.977 23.0966 270.318 22.8295C269.665 22.5625 269.156 22.1477 268.793 21.5852C268.429 21.0227 268.25 20.3125 268.256 19.4545V6.77273Z" fill="#2F3AB5"/>
<path d="M326.693 131.307C325.864 131.307 325.111 131.151 324.435 130.838C323.759 130.52 323.222 130.062 322.824 129.466C322.426 128.864 322.227 128.136 322.227 127.284C322.227 126.534 322.375 125.926 322.67 125.46C322.966 124.989 323.361 124.619 323.855 124.352C324.349 124.085 324.895 123.886 325.491 123.756C326.094 123.619 326.699 123.511 327.307 123.432C328.102 123.33 328.747 123.253 329.241 123.202C329.741 123.145 330.105 123.051 330.332 122.92C330.565 122.79 330.682 122.562 330.682 122.239V122.17C330.682 121.33 330.452 120.676 329.991 120.21C329.537 119.744 328.847 119.511 327.92 119.511C326.96 119.511 326.207 119.722 325.662 120.142C325.116 120.562 324.733 121.011 324.511 121.489L322.602 120.807C322.943 120.011 323.398 119.392 323.966 118.949C324.54 118.5 325.165 118.187 325.841 118.011C326.523 117.83 327.193 117.739 327.852 117.739C328.273 117.739 328.756 117.79 329.301 117.892C329.852 117.989 330.384 118.19 330.895 118.497C331.412 118.804 331.841 119.267 332.182 119.886C332.523 120.506 332.693 121.335 332.693 122.375V131H330.682V129.227H330.58C330.443 129.511 330.216 129.815 329.898 130.139C329.58 130.463 329.156 130.739 328.628 130.966C328.099 131.193 327.455 131.307 326.693 131.307ZM327 129.5C327.795 129.5 328.466 129.344 329.011 129.031C329.563 128.719 329.977 128.315 330.256 127.821C330.54 127.327 330.682 126.807 330.682 126.261V124.42C330.597 124.523 330.409 124.616 330.119 124.702C329.835 124.781 329.506 124.852 329.131 124.915C328.761 124.972 328.401 125.023 328.048 125.068C327.702 125.108 327.42 125.142 327.205 125.17C326.682 125.239 326.193 125.349 325.739 125.503C325.29 125.651 324.926 125.875 324.648 126.176C324.375 126.472 324.239 126.875 324.239 127.386C324.239 128.085 324.497 128.614 325.014 128.972C325.537 129.324 326.199 129.5 327 129.5ZM345.637 120.841L343.83 121.352C343.717 121.051 343.549 120.759 343.327 120.474C343.112 120.185 342.816 119.946 342.441 119.759C342.066 119.571 341.586 119.477 341.001 119.477C340.2 119.477 339.532 119.662 338.998 120.031C338.469 120.395 338.205 120.858 338.205 121.42C338.205 121.92 338.387 122.315 338.751 122.605C339.114 122.895 339.683 123.136 340.455 123.33L342.398 123.807C343.569 124.091 344.441 124.526 345.015 125.111C345.589 125.69 345.876 126.437 345.876 127.352C345.876 128.102 345.66 128.773 345.228 129.364C344.802 129.955 344.205 130.42 343.438 130.761C342.671 131.102 341.779 131.273 340.762 131.273C339.427 131.273 338.322 130.983 337.447 130.403C336.572 129.824 336.018 128.977 335.785 127.864L337.694 127.386C337.876 128.091 338.219 128.619 338.725 128.972C339.237 129.324 339.904 129.5 340.728 129.5C341.665 129.5 342.41 129.301 342.961 128.903C343.518 128.5 343.796 128.017 343.796 127.455C343.796 127 343.637 126.619 343.319 126.312C343.001 126 342.512 125.767 341.853 125.614L339.671 125.102C338.472 124.818 337.592 124.378 337.029 123.781C336.472 123.179 336.194 122.426 336.194 121.523C336.194 120.784 336.401 120.131 336.816 119.562C337.237 118.994 337.808 118.548 338.529 118.224C339.256 117.901 340.08 117.739 341.001 117.739C342.296 117.739 343.313 118.023 344.052 118.591C344.796 119.159 345.325 119.909 345.637 120.841ZM358.176 120.841L356.369 121.352C356.256 121.051 356.088 120.759 355.866 120.474C355.651 120.185 355.355 119.946 354.98 119.759C354.605 119.571 354.125 119.477 353.54 119.477C352.739 119.477 352.071 119.662 351.537 120.031C351.009 120.395 350.744 120.858 350.744 121.42C350.744 121.92 350.926 122.315 351.29 122.605C351.653 122.895 352.222 123.136 352.994 123.33L354.938 123.807C356.108 124.091 356.98 124.526 357.554 125.111C358.128 125.69 358.415 126.437 358.415 127.352C358.415 128.102 358.199 128.773 357.767 129.364C357.341 129.955 356.744 130.42 355.977 130.761C355.21 131.102 354.318 131.273 353.301 131.273C351.966 131.273 350.861 130.983 349.986 130.403C349.111 129.824 348.557 128.977 348.324 127.864L350.233 127.386C350.415 128.091 350.759 128.619 351.264 128.972C351.776 129.324 352.443 129.5 353.267 129.5C354.205 129.5 354.949 129.301 355.5 128.903C356.057 128.5 356.335 128.017 356.335 127.455C356.335 127 356.176 126.619 355.858 126.312C355.54 126 355.051 125.767 354.392 125.614L352.21 125.102C351.011 124.818 350.131 124.378 349.568 123.781C349.011 123.179 348.733 122.426 348.733 121.523C348.733 120.784 348.94 120.131 349.355 119.562C349.776 118.994 350.347 118.548 351.068 118.224C351.795 117.901 352.619 117.739 353.54 117.739C354.835 117.739 355.852 118.023 356.591 118.591C357.335 119.159 357.864 119.909 358.176 120.841ZM366.931 131.273C365.67 131.273 364.582 130.994 363.667 130.438C362.758 129.875 362.056 129.091 361.562 128.085C361.073 127.074 360.829 125.898 360.829 124.557C360.829 123.216 361.073 122.034 361.562 121.011C362.056 119.983 362.744 119.182 363.624 118.608C364.511 118.028 365.545 117.739 366.727 117.739C367.408 117.739 368.082 117.852 368.746 118.08C369.411 118.307 370.016 118.676 370.562 119.188C371.107 119.693 371.542 120.364 371.866 121.199C372.19 122.034 372.352 123.062 372.352 124.284V125.136H362.261V123.398H370.306C370.306 122.659 370.158 122 369.863 121.42C369.573 120.841 369.158 120.384 368.619 120.048C368.085 119.713 367.454 119.545 366.727 119.545C365.925 119.545 365.232 119.744 364.647 120.142C364.067 120.534 363.621 121.045 363.309 121.676C362.996 122.307 362.84 122.983 362.84 123.705V124.864C362.84 125.852 363.011 126.69 363.352 127.378C363.698 128.06 364.178 128.58 364.792 128.938C365.406 129.29 366.119 129.466 366.931 129.466C367.46 129.466 367.937 129.392 368.363 129.244C368.795 129.091 369.167 128.864 369.479 128.562C369.792 128.256 370.033 127.875 370.204 127.42L372.147 127.966C371.942 128.625 371.599 129.205 371.116 129.705C370.633 130.199 370.036 130.585 369.326 130.864C368.616 131.136 367.817 131.273 366.931 131.273ZM384.684 120.841L382.877 121.352C382.763 121.051 382.596 120.759 382.374 120.474C382.158 120.185 381.863 119.946 381.488 119.759C381.113 119.571 380.633 119.477 380.048 119.477C379.246 119.477 378.579 119.662 378.045 120.031C377.516 120.395 377.252 120.858 377.252 121.42C377.252 121.92 377.434 122.315 377.798 122.605C378.161 122.895 378.729 123.136 379.502 123.33L381.445 123.807C382.616 124.091 383.488 124.526 384.062 125.111C384.636 125.69 384.923 126.437 384.923 127.352C384.923 128.102 384.707 128.773 384.275 129.364C383.849 129.955 383.252 130.42 382.485 130.761C381.718 131.102 380.826 131.273 379.809 131.273C378.474 131.273 377.369 130.983 376.494 130.403C375.619 129.824 375.065 128.977 374.832 127.864L376.741 127.386C376.923 128.091 377.266 128.619 377.772 128.972C378.283 129.324 378.951 129.5 379.775 129.5C380.712 129.5 381.457 129.301 382.008 128.903C382.565 128.5 382.843 128.017 382.843 127.455C382.843 127 382.684 126.619 382.366 126.312C382.048 126 381.559 125.767 380.9 125.614L378.718 125.102C377.519 124.818 376.638 124.378 376.076 123.781C375.519 123.179 375.241 122.426 375.241 121.523C375.241 120.784 375.448 120.131 375.863 119.562C376.283 118.994 376.854 118.548 377.576 118.224C378.303 117.901 379.127 117.739 380.048 117.739C381.343 117.739 382.36 118.023 383.099 118.591C383.843 119.159 384.371 119.909 384.684 120.841ZM397.223 120.841L395.416 121.352C395.303 121.051 395.135 120.759 394.913 120.474C394.697 120.185 394.402 119.946 394.027 119.759C393.652 119.571 393.172 119.477 392.587 119.477C391.786 119.477 391.118 119.662 390.584 120.031C390.055 120.395 389.791 120.858 389.791 121.42C389.791 121.92 389.973 122.315 390.337 122.605C390.7 122.895 391.268 123.136 392.041 123.33L393.984 123.807C395.155 124.091 396.027 124.526 396.601 125.111C397.175 125.69 397.462 126.437 397.462 127.352C397.462 128.102 397.246 128.773 396.814 129.364C396.388 129.955 395.791 130.42 395.024 130.761C394.257 131.102 393.365 131.273 392.348 131.273C391.013 131.273 389.908 130.983 389.033 130.403C388.158 129.824 387.604 128.977 387.371 127.864L389.28 127.386C389.462 128.091 389.805 128.619 390.311 128.972C390.822 129.324 391.49 129.5 392.314 129.5C393.251 129.5 393.996 129.301 394.547 128.903C395.104 128.5 395.382 128.017 395.382 127.455C395.382 127 395.223 126.619 394.905 126.312C394.587 126 394.098 125.767 393.439 125.614L391.257 125.102C390.058 124.818 389.178 124.378 388.615 123.781C388.058 123.179 387.78 122.426 387.78 121.523C387.78 120.784 387.987 120.131 388.402 119.562C388.822 118.994 389.393 118.548 390.115 118.224C390.842 117.901 391.666 117.739 392.587 117.739C393.882 117.739 394.899 118.023 395.638 118.591C396.382 119.159 396.911 119.909 397.223 120.841ZM400.489 131V117.909H402.433V119.955H402.603C402.876 119.256 403.316 118.713 403.924 118.327C404.532 117.935 405.262 117.739 406.114 117.739C406.978 117.739 407.697 117.935 408.271 118.327C408.85 118.713 409.302 119.256 409.626 119.955H409.762C410.097 119.278 410.6 118.741 411.271 118.344C411.941 117.94 412.745 117.739 413.683 117.739C414.853 117.739 415.81 118.105 416.555 118.838C417.299 119.565 417.671 120.699 417.671 122.239V131H415.66V122.239C415.66 121.273 415.396 120.582 414.867 120.168C414.339 119.753 413.717 119.545 413.001 119.545C412.08 119.545 411.367 119.824 410.862 120.381C410.356 120.932 410.103 121.631 410.103 122.477V131H408.058V122.034C408.058 121.29 407.816 120.69 407.333 120.236C406.85 119.776 406.228 119.545 405.467 119.545C404.944 119.545 404.455 119.685 404.001 119.963C403.552 120.241 403.188 120.628 402.91 121.122C402.637 121.611 402.501 122.176 402.501 122.818V131H400.489ZM426.837 131.273C425.576 131.273 424.488 130.994 423.573 130.438C422.664 129.875 421.962 129.091 421.468 128.085C420.979 127.074 420.735 125.898 420.735 124.557C420.735 123.216 420.979 122.034 421.468 121.011C421.962 119.983 422.65 119.182 423.531 118.608C424.417 118.028 425.451 117.739 426.633 117.739C427.315 117.739 427.988 117.852 428.653 118.08C429.317 118.307 429.923 118.676 430.468 119.188C431.013 119.693 431.448 120.364 431.772 121.199C432.096 122.034 432.258 123.062 432.258 124.284V125.136H422.167V123.398H430.212C430.212 122.659 430.065 122 429.769 121.42C429.479 120.841 429.065 120.384 428.525 120.048C427.991 119.713 427.36 119.545 426.633 119.545C425.832 119.545 425.138 119.744 424.553 120.142C423.974 120.534 423.528 121.045 423.215 121.676C422.903 122.307 422.746 122.983 422.746 123.705V124.864C422.746 125.852 422.917 126.69 423.258 127.378C423.604 128.06 424.085 128.58 424.698 128.938C425.312 129.29 426.025 129.466 426.837 129.466C427.366 129.466 427.843 129.392 428.269 129.244C428.701 129.091 429.073 128.864 429.386 128.562C429.698 128.256 429.94 127.875 430.11 127.42L432.053 127.966C431.849 128.625 431.505 129.205 431.022 129.705C430.539 130.199 429.942 130.585 429.232 130.864C428.522 131.136 427.724 131.273 426.837 131.273ZM437.329 123.125V131H435.317V117.909H437.261V119.955H437.431C437.738 119.29 438.204 118.756 438.829 118.352C439.454 117.943 440.261 117.739 441.249 117.739C442.136 117.739 442.911 117.92 443.576 118.284C444.241 118.642 444.758 119.188 445.127 119.92C445.496 120.648 445.681 121.568 445.681 122.682V131H443.67V122.818C443.67 121.79 443.403 120.989 442.869 120.415C442.335 119.835 441.602 119.545 440.67 119.545C440.028 119.545 439.454 119.685 438.948 119.963C438.448 120.241 438.053 120.648 437.763 121.182C437.474 121.716 437.329 122.364 437.329 123.125ZM455.05 117.909V119.614H448.266V117.909H455.05ZM450.243 114.773H452.254V127.25C452.254 127.818 452.337 128.244 452.501 128.528C452.672 128.807 452.888 128.994 453.149 129.091C453.416 129.182 453.697 129.227 453.993 129.227C454.214 129.227 454.396 129.216 454.538 129.193C454.68 129.165 454.794 129.142 454.879 129.125L455.288 130.932C455.152 130.983 454.962 131.034 454.717 131.085C454.473 131.142 454.163 131.17 453.788 131.17C453.22 131.17 452.663 131.048 452.118 130.804C451.578 130.56 451.129 130.188 450.771 129.688C450.419 129.188 450.243 128.557 450.243 127.795V114.773Z" fill="black"/>
<path d="M658.943 252.545V270H656.83V254.761H656.727L652.466 257.591V255.443L656.83 252.545H658.943ZM669.656 270.239C668.372 270.239 667.278 269.889 666.375 269.19C665.472 268.486 664.781 267.466 664.304 266.131C663.827 264.79 663.588 263.17 663.588 261.273C663.588 259.386 663.827 257.776 664.304 256.44C664.787 255.099 665.48 254.077 666.384 253.372C667.293 252.662 668.384 252.307 669.656 252.307C670.929 252.307 672.017 252.662 672.92 253.372C673.83 254.077 674.523 255.099 675 256.44C675.483 257.776 675.724 259.386 675.724 261.273C675.724 263.17 675.486 264.79 675.009 266.131C674.531 267.466 673.841 268.486 672.938 269.19C672.034 269.889 670.94 270.239 669.656 270.239ZM669.656 268.364C670.929 268.364 671.918 267.75 672.622 266.523C673.327 265.295 673.679 263.545 673.679 261.273C673.679 259.761 673.517 258.474 673.193 257.412C672.875 256.349 672.415 255.54 671.812 254.983C671.216 254.426 670.497 254.148 669.656 254.148C668.395 254.148 667.409 254.77 666.699 256.014C665.989 257.253 665.634 259.006 665.634 261.273C665.634 262.784 665.793 264.068 666.111 265.125C666.429 266.182 666.886 266.986 667.483 267.537C668.085 268.088 668.81 268.364 669.656 268.364ZM684.656 270.239C683.372 270.239 682.278 269.889 681.375 269.19C680.472 268.486 679.781 267.466 679.304 266.131C678.827 264.79 678.588 263.17 678.588 261.273C678.588 259.386 678.827 257.776 679.304 256.44C679.787 255.099 680.48 254.077 681.384 253.372C682.293 252.662 683.384 252.307 684.656 252.307C685.929 252.307 687.017 252.662 687.92 253.372C688.83 254.077 689.523 255.099 690 256.44C690.483 257.776 690.724 259.386 690.724 261.273C690.724 263.17 690.486 264.79 690.009 266.131C689.531 267.466 688.841 268.486 687.938 269.19C687.034 269.889 685.94 270.239 684.656 270.239ZM684.656 268.364C685.929 268.364 686.918 267.75 687.622 266.523C688.327 265.295 688.679 263.545 688.679 261.273C688.679 259.761 688.517 258.474 688.193 257.412C687.875 256.349 687.415 255.54 686.812 254.983C686.216 254.426 685.497 254.148 684.656 254.148C683.395 254.148 682.409 254.77 681.699 256.014C680.989 257.253 680.634 259.006 680.634 261.273C680.634 262.784 680.793 264.068 681.111 265.125C681.429 266.182 681.886 266.986 682.483 267.537C683.085 268.088 683.81 268.364 684.656 268.364ZM702.861 266.727V265.807C702.861 265.17 702.991 264.588 703.253 264.06C703.52 263.526 703.906 263.099 704.412 262.781C704.923 262.457 705.543 262.295 706.27 262.295C707.009 262.295 707.628 262.457 708.128 262.781C708.628 263.099 709.006 263.526 709.261 264.06C709.517 264.588 709.645 265.17 709.645 265.807V266.727C709.645 267.364 709.514 267.949 709.253 268.483C708.997 269.011 708.616 269.437 708.111 269.761C707.611 270.08 706.997 270.239 706.27 270.239C705.531 270.239 704.909 270.08 704.403 269.761C703.898 269.437 703.514 269.011 703.253 268.483C702.991 267.949 702.861 267.364 702.861 266.727ZM704.599 265.807V266.727C704.599 267.256 704.724 267.73 704.974 268.151C705.224 268.565 705.656 268.773 706.27 268.773C706.866 268.773 707.287 268.565 707.531 268.151C707.781 267.73 707.906 267.256 707.906 266.727V265.807C707.906 265.278 707.787 264.807 707.548 264.392C707.31 263.972 706.884 263.761 706.27 263.761C705.673 263.761 705.244 263.972 704.983 264.392C704.727 264.807 704.599 265.278 704.599 265.807ZM694.168 256.739V255.818C694.168 255.182 694.298 254.599 694.56 254.071C694.827 253.537 695.213 253.111 695.719 252.793C696.23 252.469 696.849 252.307 697.577 252.307C698.315 252.307 698.935 252.469 699.435 252.793C699.935 253.111 700.313 253.537 700.568 254.071C700.824 254.599 700.952 255.182 700.952 255.818V256.739C700.952 257.375 700.821 257.96 700.56 258.494C700.304 259.023 699.923 259.449 699.418 259.773C698.918 260.091 698.304 260.25 697.577 260.25C696.838 260.25 696.216 260.091 695.71 259.773C695.205 259.449 694.821 259.023 694.56 258.494C694.298 257.96 694.168 257.375 694.168 256.739ZM695.906 255.818V256.739C695.906 257.267 696.031 257.741 696.281 258.162C696.531 258.577 696.963 258.784 697.577 258.784C698.173 258.784 698.594 258.577 698.838 258.162C699.088 257.741 699.213 257.267 699.213 256.739V255.818C699.213 255.29 699.094 254.818 698.855 254.403C698.616 253.983 698.19 253.773 697.577 253.773C696.98 253.773 696.551 253.983 696.29 254.403C696.034 254.818 695.906 255.29 695.906 255.818ZM694.815 270L706.815 252.545H708.759L696.759 270H694.815ZM725.565 270.273C724.338 270.273 723.281 269.983 722.395 269.403C721.509 268.824 720.827 268.026 720.349 267.009C719.872 265.991 719.634 264.83 719.634 263.523C719.634 262.193 719.878 261.02 720.366 260.003C720.861 258.98 721.548 258.182 722.429 257.608C723.315 257.028 724.349 256.739 725.531 256.739C726.452 256.739 727.281 256.909 728.02 257.25C728.759 257.591 729.364 258.068 729.835 258.682C730.307 259.295 730.599 260.011 730.713 260.83H728.702C728.548 260.233 728.207 259.705 727.679 259.244C727.156 258.778 726.452 258.545 725.565 258.545C724.781 258.545 724.094 258.75 723.503 259.159C722.918 259.562 722.46 260.134 722.131 260.872C721.807 261.605 721.645 262.466 721.645 263.455C721.645 264.466 721.804 265.347 722.122 266.097C722.446 266.847 722.901 267.429 723.486 267.844C724.077 268.259 724.77 268.466 725.565 268.466C726.088 268.466 726.562 268.375 726.989 268.193C727.415 268.011 727.776 267.75 728.071 267.409C728.366 267.068 728.577 266.659 728.702 266.182H730.713C730.599 266.955 730.318 267.651 729.869 268.27C729.426 268.884 728.838 269.372 728.105 269.736C727.378 270.094 726.531 270.273 725.565 270.273ZM738.972 270.273C737.79 270.273 736.753 269.991 735.861 269.429C734.974 268.866 734.281 268.08 733.781 267.068C733.287 266.057 733.04 264.875 733.04 263.523C733.04 262.159 733.287 260.969 733.781 259.952C734.281 258.935 734.974 258.145 735.861 257.582C736.753 257.02 737.79 256.739 738.972 256.739C740.153 256.739 741.188 257.02 742.074 257.582C742.966 258.145 743.659 258.935 744.153 259.952C744.653 260.969 744.903 262.159 744.903 263.523C744.903 264.875 744.653 266.057 744.153 267.068C743.659 268.08 742.966 268.866 742.074 269.429C741.188 269.991 740.153 270.273 738.972 270.273ZM738.972 268.466C739.869 268.466 740.608 268.236 741.188 267.776C741.767 267.315 742.196 266.71 742.474 265.96C742.753 265.21 742.892 264.398 742.892 263.523C742.892 262.648 742.753 261.832 742.474 261.077C742.196 260.321 741.767 259.71 741.188 259.244C740.608 258.778 739.869 258.545 738.972 258.545C738.074 258.545 737.335 258.778 736.756 259.244C736.176 259.71 735.747 260.321 735.469 261.077C735.19 261.832 735.051 262.648 735.051 263.523C735.051 264.398 735.19 265.21 735.469 265.96C735.747 266.71 736.176 267.315 736.756 267.776C737.335 268.236 738.074 268.466 738.972 268.466ZM747.974 270V256.909H749.917V258.886H750.053C750.292 258.239 750.724 257.713 751.349 257.31C751.974 256.906 752.678 256.705 753.462 256.705C753.61 256.705 753.795 256.707 754.016 256.713C754.238 256.719 754.406 256.727 754.519 256.739V258.784C754.451 258.767 754.295 258.741 754.05 258.707C753.812 258.668 753.559 258.648 753.292 258.648C752.656 258.648 752.087 258.781 751.587 259.048C751.093 259.31 750.701 259.673 750.411 260.139C750.127 260.599 749.985 261.125 749.985 261.716V270H747.974ZM756.903 270V256.909H758.847V258.886H758.983C759.222 258.239 759.653 257.713 760.278 257.31C760.903 256.906 761.608 256.705 762.392 256.705C762.54 256.705 762.724 256.707 762.946 256.713C763.168 256.719 763.335 256.727 763.449 256.739V258.784C763.381 258.767 763.224 258.741 762.98 258.707C762.741 258.668 762.489 258.648 762.222 258.648C761.585 258.648 761.017 258.781 760.517 259.048C760.023 259.31 759.631 259.673 759.341 260.139C759.057 260.599 758.915 261.125 758.915 261.716V270H756.903ZM770.923 270.273C769.662 270.273 768.574 269.994 767.659 269.438C766.75 268.875 766.048 268.091 765.554 267.085C765.065 266.074 764.821 264.898 764.821 263.557C764.821 262.216 765.065 261.034 765.554 260.011C766.048 258.983 766.736 258.182 767.616 257.608C768.503 257.028 769.537 256.739 770.719 256.739C771.401 256.739 772.074 256.852 772.739 257.08C773.403 257.307 774.009 257.676 774.554 258.188C775.099 258.693 775.534 259.364 775.858 260.199C776.182 261.034 776.344 262.062 776.344 263.284V264.136H766.253V262.398H774.298C774.298 261.659 774.151 261 773.855 260.42C773.565 259.841 773.151 259.384 772.611 259.048C772.077 258.713 771.446 258.545 770.719 258.545C769.918 258.545 769.224 258.744 768.639 259.142C768.06 259.534 767.614 260.045 767.301 260.676C766.989 261.307 766.832 261.983 766.832 262.705V263.864C766.832 264.852 767.003 265.69 767.344 266.378C767.69 267.06 768.17 267.58 768.784 267.938C769.398 268.29 770.111 268.466 770.923 268.466C771.452 268.466 771.929 268.392 772.355 268.244C772.787 268.091 773.159 267.864 773.472 267.562C773.784 267.256 774.026 266.875 774.196 266.42L776.139 266.966C775.935 267.625 775.591 268.205 775.108 268.705C774.625 269.199 774.028 269.585 773.318 269.864C772.608 270.136 771.81 270.273 770.923 270.273ZM784.722 270.273C783.494 270.273 782.438 269.983 781.551 269.403C780.665 268.824 779.983 268.026 779.506 267.009C779.028 265.991 778.79 264.83 778.79 263.523C778.79 262.193 779.034 261.02 779.523 260.003C780.017 258.98 780.705 258.182 781.585 257.608C782.472 257.028 783.506 256.739 784.688 256.739C785.608 256.739 786.438 256.909 787.176 257.25C787.915 257.591 788.52 258.068 788.991 258.682C789.463 259.295 789.756 260.011 789.869 260.83H787.858C787.705 260.233 787.364 259.705 786.835 259.244C786.313 258.778 785.608 258.545 784.722 258.545C783.938 258.545 783.25 258.75 782.659 259.159C782.074 259.562 781.616 260.134 781.287 260.872C780.963 261.605 780.801 262.466 780.801 263.455C780.801 264.466 780.96 265.347 781.278 266.097C781.602 266.847 782.057 267.429 782.642 267.844C783.233 268.259 783.926 268.466 784.722 268.466C785.244 268.466 785.719 268.375 786.145 268.193C786.571 268.011 786.932 267.75 787.227 267.409C787.523 267.068 787.733 266.659 787.858 266.182H789.869C789.756 266.955 789.474 267.651 789.026 268.27C788.582 268.884 787.994 269.372 787.261 269.736C786.534 270.094 785.688 270.273 784.722 270.273ZM798.503 256.909V258.614H791.719V256.909H798.503ZM793.696 253.773H795.707V266.25C795.707 266.818 795.79 267.244 795.955 267.528C796.125 267.807 796.341 267.994 796.602 268.091C796.869 268.182 797.151 268.227 797.446 268.227C797.668 268.227 797.849 268.216 797.991 268.193C798.134 268.165 798.247 268.142 798.332 268.125L798.741 269.932C798.605 269.983 798.415 270.034 798.17 270.085C797.926 270.142 797.616 270.17 797.241 270.17C796.673 270.17 796.116 270.048 795.571 269.804C795.031 269.56 794.582 269.188 794.224 268.688C793.872 268.188 793.696 267.557 793.696 266.795V253.773ZM813.597 270.273C812.369 270.273 811.313 269.983 810.426 269.403C809.54 268.824 808.858 268.026 808.381 267.009C807.903 265.991 807.665 264.83 807.665 263.523C807.665 262.193 807.909 261.02 808.398 260.003C808.892 258.98 809.58 258.182 810.46 257.608C811.347 257.028 812.381 256.739 813.562 256.739C814.483 256.739 815.312 256.909 816.051 257.25C816.79 257.591 817.395 258.068 817.866 258.682C818.338 259.295 818.631 260.011 818.744 260.83H816.733C816.58 260.233 816.239 259.705 815.71 259.244C815.188 258.778 814.483 258.545 813.597 258.545C812.813 258.545 812.125 258.75 811.534 259.159C810.949 259.562 810.491 260.134 810.162 260.872C809.838 261.605 809.676 262.466 809.676 263.455C809.676 264.466 809.835 265.347 810.153 266.097C810.477 266.847 810.932 267.429 811.517 267.844C812.108 268.259 812.801 268.466 813.597 268.466C814.119 268.466 814.594 268.375 815.02 268.193C815.446 268.011 815.807 267.75 816.102 267.409C816.398 267.068 816.608 266.659 816.733 266.182H818.744C818.631 266.955 818.349 267.651 817.901 268.27C817.457 268.884 816.869 269.372 816.136 269.736C815.409 270.094 814.563 270.273 813.597 270.273ZM827.003 270.273C825.821 270.273 824.784 269.991 823.892 269.429C823.006 268.866 822.312 268.08 821.812 267.068C821.318 266.057 821.071 264.875 821.071 263.523C821.071 262.159 821.318 260.969 821.812 259.952C822.312 258.935 823.006 258.145 823.892 257.582C824.784 257.02 825.821 256.739 827.003 256.739C828.185 256.739 829.219 257.02 830.105 257.582C830.997 258.145 831.69 258.935 832.185 259.952C832.685 260.969 832.935 262.159 832.935 263.523C832.935 264.875 832.685 266.057 832.185 267.068C831.69 268.08 830.997 268.866 830.105 269.429C829.219 269.991 828.185 270.273 827.003 270.273ZM827.003 268.466C827.901 268.466 828.639 268.236 829.219 267.776C829.798 267.315 830.227 266.71 830.506 265.96C830.784 265.21 830.923 264.398 830.923 263.523C830.923 262.648 830.784 261.832 830.506 261.077C830.227 260.321 829.798 259.71 829.219 259.244C828.639 258.778 827.901 258.545 827.003 258.545C826.105 258.545 825.366 258.778 824.787 259.244C824.207 259.71 823.778 260.321 823.5 261.077C823.222 261.832 823.082 262.648 823.082 263.523C823.082 264.398 823.222 265.21 823.5 265.96C823.778 266.71 824.207 267.315 824.787 267.776C825.366 268.236 826.105 268.466 827.003 268.466ZM840.948 270.273C839.857 270.273 838.894 269.997 838.059 269.446C837.224 268.889 836.57 268.105 836.099 267.094C835.627 266.077 835.391 264.875 835.391 263.489C835.391 262.114 835.627 260.92 836.099 259.909C836.57 258.898 837.227 258.116 838.067 257.565C838.908 257.014 839.88 256.739 840.982 256.739C841.835 256.739 842.508 256.881 843.002 257.165C843.502 257.443 843.883 257.761 844.144 258.119C844.411 258.472 844.619 258.761 844.766 258.989H844.937V252.545H846.948V270H845.005V267.989H844.766C844.619 268.227 844.408 268.528 844.136 268.892C843.863 269.25 843.474 269.571 842.968 269.855C842.462 270.134 841.789 270.273 840.948 270.273ZM841.221 268.466C842.028 268.466 842.71 268.256 843.266 267.835C843.823 267.409 844.246 266.821 844.536 266.071C844.826 265.315 844.971 264.443 844.971 263.455C844.971 262.477 844.829 261.622 844.545 260.889C844.261 260.151 843.84 259.577 843.283 259.168C842.727 258.753 842.039 258.545 841.221 258.545C840.369 258.545 839.658 258.764 839.09 259.202C838.528 259.634 838.104 260.222 837.82 260.966C837.542 261.705 837.403 262.534 837.403 263.455C837.403 264.386 837.545 265.233 837.829 265.994C838.119 266.75 838.545 267.352 839.107 267.801C839.675 268.244 840.38 268.466 841.221 268.466ZM856.4 270.273C855.138 270.273 854.05 269.994 853.136 269.438C852.227 268.875 851.525 268.091 851.031 267.085C850.542 266.074 850.298 264.898 850.298 263.557C850.298 262.216 850.542 261.034 851.031 260.011C851.525 258.983 852.212 258.182 853.093 257.608C853.979 257.028 855.013 256.739 856.195 256.739C856.877 256.739 857.55 256.852 858.215 257.08C858.88 257.307 859.485 257.676 860.031 258.188C860.576 258.693 861.011 259.364 861.335 260.199C861.658 261.034 861.82 262.062 861.82 263.284V264.136H851.729V262.398H859.775C859.775 261.659 859.627 261 859.332 260.42C859.042 259.841 858.627 259.384 858.087 259.048C857.553 258.713 856.923 258.545 856.195 258.545C855.394 258.545 854.701 258.744 854.116 259.142C853.536 259.534 853.09 260.045 852.778 260.676C852.465 261.307 852.309 261.983 852.309 262.705V263.864C852.309 264.852 852.479 265.69 852.82 266.378C853.167 267.06 853.647 267.58 854.261 267.938C854.874 268.29 855.587 268.466 856.4 268.466C856.928 268.466 857.406 268.392 857.832 268.244C858.263 268.091 858.636 267.864 858.948 267.562C859.261 267.256 859.502 266.875 859.673 266.42L861.616 266.966C861.411 267.625 861.067 268.205 860.585 268.705C860.102 269.199 859.505 269.585 858.795 269.864C858.085 270.136 857.286 270.273 856.4 270.273ZM877.119 270.273C875.857 270.273 874.769 269.994 873.854 269.438C872.945 268.875 872.244 268.091 871.749 267.085C871.261 266.074 871.016 264.898 871.016 263.557C871.016 262.216 871.261 261.034 871.749 260.011C872.244 258.983 872.931 258.182 873.812 257.608C874.698 257.028 875.732 256.739 876.914 256.739C877.596 256.739 878.269 256.852 878.934 257.08C879.599 257.307 880.204 257.676 880.749 258.188C881.295 258.693 881.729 259.364 882.053 260.199C882.377 261.034 882.539 262.062 882.539 263.284V264.136H872.448V262.398H880.494C880.494 261.659 880.346 261 880.05 260.42C879.761 259.841 879.346 259.384 878.806 259.048C878.272 258.713 877.641 258.545 876.914 258.545C876.113 258.545 875.42 258.744 874.835 259.142C874.255 259.534 873.809 260.045 873.496 260.676C873.184 261.307 873.028 261.983 873.028 262.705V263.864C873.028 264.852 873.198 265.69 873.539 266.378C873.886 267.06 874.366 267.58 874.979 267.938C875.593 268.29 876.306 268.466 877.119 268.466C877.647 268.466 878.124 268.392 878.55 268.244C878.982 268.091 879.354 267.864 879.667 267.562C879.979 267.256 880.221 266.875 880.391 266.42L882.335 266.966C882.13 267.625 881.786 268.205 881.303 268.705C880.82 269.199 880.224 269.585 879.513 269.864C878.803 270.136 878.005 270.273 877.119 270.273ZM890.542 270.273C889.451 270.273 888.488 269.997 887.653 269.446C886.817 268.889 886.164 268.105 885.692 267.094C885.221 266.077 884.985 264.875 884.985 263.489C884.985 262.114 885.221 260.92 885.692 259.909C886.164 258.898 886.82 258.116 887.661 257.565C888.502 257.014 889.474 256.739 890.576 256.739C891.428 256.739 892.102 256.881 892.596 257.165C893.096 257.443 893.477 257.761 893.738 258.119C894.005 258.472 894.212 258.761 894.36 258.989H894.531V252.545H896.542V270H894.599V267.989H894.36C894.212 268.227 894.002 268.528 893.729 268.892C893.457 269.25 893.067 269.571 892.562 269.855C892.056 270.134 891.383 270.273 890.542 270.273ZM890.815 268.466C891.621 268.466 892.303 268.256 892.86 267.835C893.417 267.409 893.84 266.821 894.13 266.071C894.42 265.315 894.565 264.443 894.565 263.455C894.565 262.477 894.423 261.622 894.138 260.889C893.854 260.151 893.434 259.577 892.877 259.168C892.32 258.753 891.633 258.545 890.815 258.545C889.962 258.545 889.252 258.764 888.684 259.202C888.121 259.634 887.698 260.222 887.414 260.966C887.136 261.705 886.996 262.534 886.996 263.455C886.996 264.386 887.138 265.233 887.423 265.994C887.712 266.75 888.138 267.352 888.701 267.801C889.269 268.244 889.974 268.466 890.815 268.466ZM900.505 270V256.909H902.516V270H900.505ZM901.528 254.727C901.136 254.727 900.798 254.594 900.513 254.327C900.235 254.06 900.096 253.739 900.096 253.364C900.096 252.989 900.235 252.668 900.513 252.401C900.798 252.134 901.136 252 901.528 252C901.92 252 902.255 252.134 902.533 252.401C902.817 252.668 902.96 252.989 902.96 253.364C902.96 253.739 902.817 254.06 902.533 254.327C902.255 254.594 901.92 254.727 901.528 254.727ZM911.893 256.909V258.614H905.109V256.909H911.893ZM907.087 253.773H909.098V266.25C909.098 266.818 909.18 267.244 909.345 267.528C909.516 267.807 909.732 267.994 909.993 268.091C910.26 268.182 910.541 268.227 910.837 268.227C911.058 268.227 911.24 268.216 911.382 268.193C911.524 268.165 911.638 268.142 911.723 268.125L912.132 269.932C911.996 269.983 911.805 270.034 911.561 270.085C911.317 270.142 911.007 270.17 910.632 270.17C910.064 270.17 909.507 270.048 908.962 269.804C908.422 269.56 907.973 269.188 907.615 268.688C907.263 268.188 907.087 267.557 907.087 266.795V253.773Z" fill="black"/>
<path d="M322.841 304.909V286.909H324.784V288.989H325.023C325.17 288.761 325.375 288.472 325.636 288.119C325.903 287.761 326.284 287.443 326.778 287.165C327.278 286.881 327.955 286.739 328.807 286.739C329.909 286.739 330.881 287.014 331.722 287.565C332.563 288.116 333.219 288.898 333.69 289.909C334.162 290.92 334.398 292.114 334.398 293.489C334.398 294.875 334.162 296.077 333.69 297.094C333.219 298.105 332.565 298.889 331.73 299.446C330.895 299.997 329.932 300.273 328.841 300.273C328 300.273 327.327 300.134 326.821 299.855C326.315 299.571 325.926 299.25 325.653 298.892C325.381 298.528 325.17 298.227 325.023 297.989H324.852V304.909H322.841ZM324.818 293.455C324.818 294.443 324.963 295.315 325.253 296.071C325.543 296.821 325.966 297.409 326.523 297.835C327.08 298.256 327.761 298.466 328.568 298.466C329.409 298.466 330.111 298.244 330.673 297.801C331.241 297.352 331.668 296.75 331.952 295.994C332.241 295.233 332.386 294.386 332.386 293.455C332.386 292.534 332.244 291.705 331.96 290.966C331.682 290.222 331.259 289.634 330.69 289.202C330.128 288.764 329.42 288.545 328.568 288.545C327.75 288.545 327.063 288.753 326.506 289.168C325.949 289.577 325.528 290.151 325.244 290.889C324.96 291.622 324.818 292.477 324.818 293.455ZM339.477 282.545V300H337.466V282.545H339.477ZM347.013 300.307C346.184 300.307 345.431 300.151 344.755 299.838C344.079 299.52 343.542 299.062 343.144 298.466C342.746 297.864 342.548 297.136 342.548 296.284C342.548 295.534 342.695 294.926 342.991 294.46C343.286 293.989 343.681 293.619 344.175 293.352C344.67 293.085 345.215 292.886 345.812 292.756C346.414 292.619 347.019 292.511 347.627 292.432C348.423 292.33 349.067 292.253 349.562 292.202C350.062 292.145 350.425 292.051 350.653 291.92C350.886 291.79 351.002 291.562 351.002 291.239V291.17C351.002 290.33 350.772 289.676 350.312 289.21C349.857 288.744 349.167 288.511 348.241 288.511C347.281 288.511 346.528 288.722 345.982 289.142C345.437 289.562 345.053 290.011 344.832 290.489L342.923 289.807C343.263 289.011 343.718 288.392 344.286 287.949C344.86 287.5 345.485 287.187 346.161 287.011C346.843 286.83 347.513 286.739 348.173 286.739C348.593 286.739 349.076 286.79 349.621 286.892C350.173 286.989 350.704 287.19 351.215 287.497C351.732 287.804 352.161 288.267 352.502 288.886C352.843 289.506 353.013 290.335 353.013 291.375V300H351.002V298.227H350.9C350.763 298.511 350.536 298.815 350.218 299.139C349.9 299.463 349.477 299.739 348.948 299.966C348.42 300.193 347.775 300.307 347.013 300.307ZM347.32 298.5C348.116 298.5 348.786 298.344 349.332 298.031C349.883 297.719 350.298 297.315 350.576 296.821C350.86 296.327 351.002 295.807 351.002 295.261V293.42C350.917 293.523 350.729 293.616 350.44 293.702C350.156 293.781 349.826 293.852 349.451 293.915C349.082 293.972 348.721 294.023 348.369 294.068C348.022 294.108 347.741 294.142 347.525 294.17C347.002 294.239 346.513 294.349 346.059 294.503C345.61 294.651 345.246 294.875 344.968 295.176C344.695 295.472 344.559 295.875 344.559 296.386C344.559 297.085 344.817 297.614 345.335 297.972C345.857 298.324 346.519 298.5 347.32 298.5ZM358.696 292.125V300H356.685V286.909H358.628V288.955H358.798C359.105 288.29 359.571 287.756 360.196 287.352C360.821 286.943 361.628 286.739 362.616 286.739C363.503 286.739 364.278 286.92 364.943 287.284C365.608 287.642 366.125 288.188 366.494 288.92C366.864 289.648 367.048 290.568 367.048 291.682V300H365.037V291.818C365.037 290.79 364.77 289.989 364.236 289.415C363.702 288.835 362.969 288.545 362.037 288.545C361.395 288.545 360.821 288.685 360.315 288.963C359.815 289.241 359.42 289.648 359.131 290.182C358.841 290.716 358.696 291.364 358.696 292.125Z" fill="black"/>
<path d="M322.841 483V469.909H324.852V483H322.841ZM323.864 467.727C323.472 467.727 323.134 467.594 322.849 467.327C322.571 467.06 322.432 466.739 322.432 466.364C322.432 465.989 322.571 465.668 322.849 465.401C323.134 465.134 323.472 465 323.864 465C324.256 465 324.591 465.134 324.869 465.401C325.153 465.668 325.295 465.989 325.295 466.364C325.295 466.739 325.153 467.06 324.869 467.327C324.591 467.594 324.256 467.727 323.864 467.727ZM330.548 475.125V483H328.536V469.909H330.479V471.955H330.65C330.957 471.29 331.423 470.756 332.048 470.352C332.673 469.943 333.479 469.739 334.468 469.739C335.354 469.739 336.13 469.92 336.795 470.284C337.46 470.642 337.977 471.188 338.346 471.92C338.715 472.648 338.9 473.568 338.9 474.682V483H336.888V474.818C336.888 473.79 336.621 472.989 336.087 472.415C335.553 471.835 334.82 471.545 333.888 471.545C333.246 471.545 332.673 471.685 332.167 471.963C331.667 472.241 331.272 472.648 330.982 473.182C330.692 473.716 330.548 474.364 330.548 475.125ZM351.848 472.841L350.041 473.352C349.928 473.051 349.76 472.759 349.538 472.474C349.322 472.185 349.027 471.946 348.652 471.759C348.277 471.571 347.797 471.477 347.212 471.477C346.411 471.477 345.743 471.662 345.209 472.031C344.68 472.395 344.416 472.858 344.416 473.42C344.416 473.92 344.598 474.315 344.962 474.605C345.325 474.895 345.893 475.136 346.666 475.33L348.609 475.807C349.78 476.091 350.652 476.526 351.226 477.111C351.8 477.69 352.087 478.437 352.087 479.352C352.087 480.102 351.871 480.773 351.439 481.364C351.013 481.955 350.416 482.42 349.649 482.761C348.882 483.102 347.99 483.273 346.973 483.273C345.638 483.273 344.533 482.983 343.658 482.403C342.783 481.824 342.229 480.977 341.996 479.864L343.905 479.386C344.087 480.091 344.43 480.619 344.936 480.972C345.447 481.324 346.115 481.5 346.939 481.5C347.876 481.5 348.621 481.301 349.172 480.903C349.729 480.5 350.007 480.017 350.007 479.455C350.007 479 349.848 478.619 349.53 478.312C349.212 478 348.723 477.767 348.064 477.614L345.882 477.102C344.683 476.818 343.803 476.378 343.24 475.781C342.683 475.179 342.405 474.426 342.405 473.523C342.405 472.784 342.612 472.131 343.027 471.562C343.447 470.994 344.018 470.548 344.74 470.224C345.467 469.901 346.291 469.739 347.212 469.739C348.507 469.739 349.524 470.023 350.263 470.591C351.007 471.159 351.536 471.909 351.848 472.841ZM360.808 469.909V471.614H354.023V469.909H360.808ZM356.001 466.773H358.012V479.25C358.012 479.818 358.094 480.244 358.259 480.528C358.43 480.807 358.646 480.994 358.907 481.091C359.174 481.182 359.455 481.227 359.751 481.227C359.972 481.227 360.154 481.216 360.296 481.193C360.438 481.165 360.552 481.142 360.637 481.125L361.046 482.932C360.91 482.983 360.719 483.034 360.475 483.085C360.231 483.142 359.921 483.17 359.546 483.17C358.978 483.17 358.421 483.048 357.876 482.804C357.336 482.56 356.887 482.188 356.529 481.688C356.177 481.188 356.001 480.557 356.001 479.795V466.773ZM363.833 483V469.909H365.776V471.886H365.913C366.151 471.239 366.583 470.713 367.208 470.31C367.833 469.906 368.538 469.705 369.322 469.705C369.469 469.705 369.654 469.707 369.876 469.713C370.097 469.719 370.265 469.727 370.379 469.739V471.784C370.31 471.767 370.154 471.741 369.91 471.707C369.671 471.668 369.418 471.648 369.151 471.648C368.515 471.648 367.947 471.781 367.447 472.048C366.952 472.31 366.56 472.673 366.271 473.139C365.987 473.599 365.844 474.125 365.844 474.716V483H363.833ZM381.013 477.648V469.909H383.024V483H381.013V480.784H380.876C380.57 481.449 380.092 482.014 379.445 482.48C378.797 482.94 377.979 483.17 376.99 483.17C376.172 483.17 375.445 482.991 374.808 482.634C374.172 482.27 373.672 481.724 373.308 480.997C372.945 480.264 372.763 479.341 372.763 478.227V469.909H374.774V478.091C374.774 479.045 375.041 479.807 375.575 480.375C376.115 480.943 376.803 481.227 377.638 481.227C378.138 481.227 378.646 481.099 379.163 480.844C379.686 480.588 380.124 480.196 380.476 479.668C380.834 479.139 381.013 478.466 381.013 477.648ZM392.026 483.273C390.799 483.273 389.742 482.983 388.856 482.403C387.969 481.824 387.288 481.026 386.81 480.009C386.333 478.991 386.094 477.83 386.094 476.523C386.094 475.193 386.339 474.02 386.827 473.003C387.322 471.98 388.009 471.182 388.89 470.608C389.776 470.028 390.81 469.739 391.992 469.739C392.913 469.739 393.742 469.909 394.481 470.25C395.219 470.591 395.825 471.068 396.296 471.682C396.768 472.295 397.06 473.011 397.174 473.83H395.163C395.009 473.233 394.668 472.705 394.14 472.244C393.617 471.778 392.913 471.545 392.026 471.545C391.242 471.545 390.555 471.75 389.964 472.159C389.379 472.562 388.921 473.134 388.592 473.872C388.268 474.605 388.106 475.466 388.106 476.455C388.106 477.466 388.265 478.347 388.583 479.097C388.907 479.847 389.362 480.429 389.947 480.844C390.538 481.259 391.231 481.466 392.026 481.466C392.549 481.466 393.023 481.375 393.45 481.193C393.876 481.011 394.237 480.75 394.532 480.409C394.827 480.068 395.038 479.659 395.163 479.182H397.174C397.06 479.955 396.779 480.651 396.33 481.27C395.887 481.884 395.299 482.372 394.566 482.736C393.839 483.094 392.992 483.273 392.026 483.273ZM405.808 469.909V471.614H399.023V469.909H405.808ZM401.001 466.773H403.012V479.25C403.012 479.818 403.094 480.244 403.259 480.528C403.43 480.807 403.646 480.994 403.907 481.091C404.174 481.182 404.455 481.227 404.751 481.227C404.972 481.227 405.154 481.216 405.296 481.193C405.438 481.165 405.552 481.142 405.637 481.125L406.046 482.932C405.91 482.983 405.719 483.034 405.475 483.085C405.231 483.142 404.921 483.17 404.546 483.17C403.978 483.17 403.421 483.048 402.876 482.804C402.336 482.56 401.887 482.188 401.529 481.688C401.177 481.188 401.001 480.557 401.001 479.795V466.773ZM408.833 483V469.909H410.844V483H408.833ZM409.856 467.727C409.464 467.727 409.126 467.594 408.842 467.327C408.563 467.06 408.424 466.739 408.424 466.364C408.424 465.989 408.563 465.668 408.842 465.401C409.126 465.134 409.464 465 409.856 465C410.248 465 410.583 465.134 410.862 465.401C411.146 465.668 411.288 465.989 411.288 466.364C411.288 466.739 411.146 467.06 410.862 467.327C410.583 467.594 410.248 467.727 409.856 467.727ZM419.847 483.273C418.665 483.273 417.628 482.991 416.736 482.429C415.849 481.866 415.156 481.08 414.656 480.068C414.162 479.057 413.915 477.875 413.915 476.523C413.915 475.159 414.162 473.969 414.656 472.952C415.156 471.935 415.849 471.145 416.736 470.582C417.628 470.02 418.665 469.739 419.847 469.739C421.028 469.739 422.063 470.02 422.949 470.582C423.841 471.145 424.534 471.935 425.028 472.952C425.528 473.969 425.778 475.159 425.778 476.523C425.778 477.875 425.528 479.057 425.028 480.068C424.534 481.08 423.841 481.866 422.949 482.429C422.063 482.991 421.028 483.273 419.847 483.273ZM419.847 481.466C420.744 481.466 421.483 481.236 422.062 480.776C422.642 480.315 423.071 479.71 423.349 478.96C423.628 478.21 423.767 477.398 423.767 476.523C423.767 475.648 423.628 474.832 423.349 474.077C423.071 473.321 422.642 472.71 422.062 472.244C421.483 471.778 420.744 471.545 419.847 471.545C418.949 471.545 418.21 471.778 417.631 472.244C417.051 472.71 416.622 473.321 416.344 474.077C416.065 474.832 415.926 475.648 415.926 476.523C415.926 477.398 416.065 478.21 416.344 478.96C416.622 479.71 417.051 480.315 417.631 480.776C418.21 481.236 418.949 481.466 419.847 481.466ZM430.86 475.125V483H428.849V469.909H430.792V471.955H430.962C431.269 471.29 431.735 470.756 432.36 470.352C432.985 469.943 433.792 469.739 434.781 469.739C435.667 469.739 436.442 469.92 437.107 470.284C437.772 470.642 438.289 471.188 438.658 471.92C439.028 472.648 439.212 473.568 439.212 474.682V483H437.201V474.818C437.201 473.79 436.934 472.989 436.4 472.415C435.866 471.835 435.133 471.545 434.201 471.545C433.559 471.545 432.985 471.685 432.479 471.963C431.979 472.241 431.585 472.648 431.295 473.182C431.005 473.716 430.86 474.364 430.86 475.125ZM452.161 472.841L450.354 473.352C450.24 473.051 450.072 472.759 449.851 472.474C449.635 472.185 449.339 471.946 448.964 471.759C448.589 471.571 448.109 471.477 447.524 471.477C446.723 471.477 446.055 471.662 445.521 472.031C444.993 472.395 444.729 472.858 444.729 473.42C444.729 473.92 444.911 474.315 445.274 474.605C445.638 474.895 446.206 475.136 446.979 475.33L448.922 475.807C450.092 476.091 450.964 476.526 451.538 477.111C452.112 477.69 452.399 478.437 452.399 479.352C452.399 480.102 452.183 480.773 451.751 481.364C451.325 481.955 450.729 482.42 449.962 482.761C449.195 483.102 448.303 483.273 447.286 483.273C445.95 483.273 444.845 482.983 443.97 482.403C443.095 481.824 442.541 480.977 442.308 479.864L444.217 479.386C444.399 480.091 444.743 480.619 445.249 480.972C445.76 481.324 446.428 481.5 447.251 481.5C448.189 481.5 448.933 481.301 449.484 480.903C450.041 480.5 450.32 480.017 450.32 479.455C450.32 479 450.161 478.619 449.842 478.312C449.524 478 449.036 477.767 448.376 477.614L446.195 477.102C444.996 476.818 444.115 476.378 443.553 475.781C442.996 475.179 442.717 474.426 442.717 473.523C442.717 472.784 442.925 472.131 443.339 471.562C443.76 470.994 444.331 470.548 445.053 470.224C445.78 469.901 446.604 469.739 447.524 469.739C448.82 469.739 449.837 470.023 450.575 470.591C451.32 471.159 451.848 471.909 452.161 472.841Z" fill="black"/>
<path d="M245 73H205C202.348 73 199.804 74.0536 197.929 75.9289C196.054 77.8043 195 80.3478 195 83V163C195 165.652 196.054 168.196 197.929 170.071C199.804 171.946 202.348 173 205 173H265C267.652 173 270.196 171.946 272.071 170.071C273.946 168.196 275 165.652 275 163V103M245 73L275 103M245 73V103H275M255 128H215M255 148H215M225 108H215" stroke="#1E1E1E" stroke-width="4" stroke-linecap="round" stroke-linejoin="round"/>
<path d="M245 241H205C202.348 241 199.804 242.054 197.929 243.929C196.054 245.804 195 248.348 195 251V331C195 333.652 196.054 336.196 197.929 338.071C199.804 339.946 202.348 341 205 341H265C267.652 341 270.196 339.946 272.071 338.071C273.946 336.196 275 333.652 275 331V271M245 241L275 271M245 241V271H275M255 296H215M255 316H215M225 276H215" stroke="#1E1E1E" stroke-width="4" stroke-linecap="round" stroke-linejoin="round"/>
<path d="M245 419H205C202.348 419 199.804 420.054 197.929 421.929C196.054 423.804 195 426.348 195 429V509C195 511.652 196.054 514.196 197.929 516.071C199.804 517.946 202.348 519 205 519H265C267.652 519 270.196 517.946 272.071 516.071C273.946 514.196 275 511.652 275 509V449M245 419L275 449M245 419V449H275M255 474H215M255 494H215M225 454H215" stroke="#1E1E1E" stroke-width="4" stroke-linecap="round" stroke-linejoin="round"/>
<path d="M184.354 131.354C184.549 131.158 184.549 130.842 184.354 130.646L181.172 127.464C180.976 127.269 180.66 127.269 180.464 127.464C180.269 127.66 180.269 127.976 180.464 128.172L183.293 131L180.464 133.828C180.269 134.024 180.269 134.34 180.464 134.536C180.66 134.731 180.976 134.731 181.172 134.536L184.354 131.354ZM78 131.5L184 131.5L184 130.5L78 130.5L78 131.5Z" fill="black"/>
<path d="M184.354 292.354C184.549 292.158 184.549 291.842 184.354 291.646L181.172 288.464C180.976 288.269 180.66 288.269 180.464 288.464C180.269 288.66 180.269 288.976 180.464 289.172L183.293 292L180.464 294.828C180.269 295.024 180.269 295.34 180.464 295.536C180.66 295.731 180.976 295.731 181.172 295.536L184.354 292.354ZM78 292.5L184 292.5L184 291.5L78 291.5L78 292.5Z" fill="black"/>
<path d="M905.354 292.354C905.549 292.158 905.549 291.842 905.354 291.646L902.172 288.464C901.976 288.269 901.66 288.269 901.464 288.464C901.269 288.66 901.269 288.976 901.464 289.172L904.293 292L901.464 294.828C901.269 295.024 901.269 295.34 901.464 295.536C901.66 295.731 901.976 295.731 902.172 295.536L905.354 292.354ZM661 292.5L905 292.5L905 291.5L661 291.5L661 292.5Z" fill="black"/>
<path d="M184.354 475.354C184.549 475.158 184.549 474.842 184.354 474.646L181.172 471.464C180.976 471.269 180.66 471.269 180.464 471.464C180.269 471.66 180.269 471.976 180.464 472.172L183.293 475L180.464 477.828C180.269 478.024 180.269 478.34 180.464 478.536C180.66 478.731 180.976 478.731 181.172 478.536L184.354 475.354ZM78 475.5L184 475.5L184 474.5L78 474.5L78 475.5Z" fill="black"/>
<path d="M164 389L483 389" stroke="#A5A5A5" stroke-dasharray="8 8"/>
<path d="M164 206L483 206" stroke="#A5A5A5" stroke-dasharray="8 8"/>
<rect x="966.5" y="251.5" width="112" height="96" rx="9.5" fill="white" stroke="black"/>
<path d="M1031 312L1043 300L1031 288M1015 288L1003 300L1015 312" stroke="#1E1E1E" stroke-width="4" stroke-linecap="round" stroke-linejoin="round"/>
<rect width="126" height="126" transform="translate(447 222)" fill="white"/>
<path fill-rule="evenodd" clip-rule="evenodd" d="M492.983 248.25H527.017C531.243 248.25 534.731 248.25 537.572 248.482C540.523 248.723 543.236 249.241 545.784 250.539C549.735 252.552 552.948 255.765 554.961 259.716C556.259 262.264 556.777 264.977 557.018 267.928C557.25 270.769 557.25 274.257 557.25 278.483V302.017C557.25 306.243 557.25 309.731 557.018 312.572C556.777 315.523 556.259 318.236 554.961 320.784C552.948 324.735 549.735 327.948 545.784 329.961C543.236 331.259 540.523 331.777 537.572 332.018C534.731 332.25 531.243 332.25 527.017 332.25H492.983C488.757 332.25 485.269 332.25 482.428 332.018C479.477 331.777 476.764 331.259 474.216 329.961C470.265 327.948 467.052 324.735 465.039 320.784C463.741 318.236 463.223 315.523 462.982 312.572C462.75 309.731 462.75 306.243 462.75 302.017V278.483C462.75 274.257 462.75 270.769 462.982 267.928C463.223 264.977 463.741 262.264 465.039 259.716C467.052 255.765 470.265 252.552 474.216 250.539C476.764 249.241 479.477 248.723 482.428 248.482C485.269 248.25 488.757 248.25 492.983 248.25ZM483.283 258.947C480.981 259.135 479.804 259.476 478.983 259.894C477.007 260.901 475.401 262.507 474.394 264.483C473.976 265.304 473.635 266.481 473.447 268.783C473.254 271.146 473.25 274.203 473.25 278.7V301.8C473.25 306.297 473.254 309.354 473.447 311.717C473.635 314.019 473.976 315.196 474.394 316.017C475.401 317.993 477.007 319.599 478.983 320.606C479.804 321.024 480.981 321.365 483.283 321.553C485.646 321.746 488.703 321.75 493.2 321.75H526.8C531.297 321.75 534.354 321.746 536.717 321.553C539.019 321.365 540.196 321.024 541.017 320.606C542.993 319.599 544.599 317.993 545.606 316.017C546.024 315.196 546.365 314.019 546.553 311.717C546.746 309.354 546.75 306.297 546.75 301.8V278.7C546.75 274.203 546.746 271.146 546.553 268.783C546.365 266.481 546.024 265.304 545.606 264.483C544.599 262.507 542.993 260.901 541.017 259.894C540.196 259.476 539.019 259.135 536.717 258.947C534.354 258.754 531.297 258.75 526.8 258.75H493.2C488.703 258.75 485.646 258.754 483.283 258.947Z" fill="#2F3AB5"/>
<path fill-rule="evenodd" clip-rule="evenodd" d="M499.5 234.757L499.5 237.75L489 237.75L489 230.39L490.461 228.866C491.734 227.539 493.633 225.608 496.953 224.167C500.164 222.774 504.304 222 510 222C515.696 222 519.837 222.774 523.047 224.167C526.367 225.608 528.266 227.539 529.539 228.866L531 230.39V237.75H520.5V234.757C520.035 234.395 519.526 234.085 518.868 233.8C517.399 233.162 514.804 232.5 510 232.5C505.196 232.5 502.602 233.162 501.132 233.8C500.474 234.085 499.965 234.395 499.5 234.757Z" fill="#2F3AB5"/>
<path fill-rule="evenodd" clip-rule="evenodd" d="M510.003 311.25C503.751 311.253 497.365 309.649 491.1 304.95L497.4 296.55C501.635 299.726 505.74 300.752 509.997 300.75C514.254 300.748 518.369 299.723 522.6 296.55L528.9 304.95C522.631 309.652 516.237 311.247 510.003 311.25Z" fill="#2F3AB5"/>
<path d="M483.75 282.375C483.75 278.026 487.276 274.5 491.625 274.5C495.974 274.5 499.5 278.026 499.5 282.375C499.5 286.724 495.974 290.25 491.625 290.25C487.276 290.25 483.75 286.724 483.75 282.375Z" fill="#2F3AB5"/>
<path d="M520.5 282.375C520.5 278.026 524.026 274.5 528.375 274.5C532.724 274.5 536.25 278.026 536.25 282.375C536.25 286.724 532.724 290.25 528.375 290.25C524.026 290.25 520.5 286.724 520.5 282.375Z" fill="#2F3AB5"/>
<rect width="63" height="63" transform="translate(0 262)" fill="white"/>
<path fill-rule="evenodd" clip-rule="evenodd" d="M22.9916 275.125H40.0084C42.1215 275.125 43.8654 275.125 45.286 275.241C46.7616 275.362 48.1179 275.62 49.3919 276.269C51.3676 277.276 52.9739 278.882 53.9806 280.858C54.6297 282.132 54.8884 283.488 55.009 284.964C55.1251 286.385 55.125 288.129 55.125 290.242V302.008C55.125 304.121 55.1251 305.865 55.009 307.286C54.8884 308.762 54.6297 310.118 53.9806 311.392C52.9739 313.368 51.3676 314.974 49.3919 315.981C48.1179 316.63 46.7616 316.888 45.286 317.009C43.8654 317.125 42.1214 317.125 40.0084 317.125H22.9917C20.8786 317.125 19.1346 317.125 17.714 317.009C16.2385 316.888 14.8821 316.63 13.6081 315.981C11.6324 314.974 10.0261 313.368 9.01943 311.392C8.3703 310.118 8.11156 308.762 7.99101 307.286C7.87494 305.865 7.87497 304.121 7.875 302.008V290.242C7.87497 288.129 7.87494 286.385 7.99101 284.964C8.11156 283.488 8.3703 282.132 9.01943 280.858C10.0261 278.882 11.6324 277.276 13.6081 276.269C14.8821 275.62 16.2385 275.362 17.714 275.241C19.1346 275.125 20.8785 275.125 22.9916 275.125ZM18.1415 280.474C16.9906 280.568 16.4021 280.738 15.9916 280.947C15.0037 281.451 14.2006 282.254 13.6972 283.242C13.488 283.652 13.3176 284.241 13.2236 285.391C13.127 286.573 13.125 288.101 13.125 290.35V301.9C13.125 304.149 13.127 305.677 13.2236 306.859C13.3176 308.009 13.488 308.598 13.6972 309.008C14.2006 309.996 15.0037 310.799 15.9916 311.303C16.4021 311.512 16.9906 311.682 18.1415 311.776C19.323 311.873 20.8515 311.875 23.1 311.875H39.9C42.1485 311.875 43.677 311.873 44.8585 311.776C46.0094 311.682 46.5979 311.512 47.0085 311.303C47.9963 310.799 48.7995 309.996 49.3028 309.008C49.512 308.598 49.6824 308.009 49.7764 306.859C49.873 305.677 49.875 304.149 49.875 301.9V290.35C49.875 288.101 49.873 286.573 49.7764 285.391C49.6824 284.241 49.512 283.652 49.3028 283.242C48.7995 282.254 47.9963 281.451 47.0085 280.947C46.5979 280.738 46.0094 280.568 44.8585 280.474C43.677 280.377 42.1485 280.375 39.9 280.375H23.1C20.8515 280.375 19.323 280.377 18.1415 280.474Z" fill="#2F3AB5"/>
<path fill-rule="evenodd" clip-rule="evenodd" d="M26.2501 268.379L26.25 269.875L21 269.875L21.0002 266.195L21.7304 265.433C22.367 264.769 23.3167 263.804 24.9766 263.084C26.582 262.387 28.6522 262 31.5001 262C34.3481 262 36.4183 262.387 38.0236 263.084C39.6836 263.804 40.6331 264.769 41.2697 265.433L42 266.195V269.875H36.75V268.379C36.5177 268.197 36.2629 268.043 35.9339 267.9C35.1993 267.581 33.902 267.25 31.5001 267.25C29.0982 267.25 27.8009 267.581 27.0662 267.9C26.7372 268.043 26.4825 268.197 26.2501 268.379Z" fill="#2F3AB5"/>
<path fill-rule="evenodd" clip-rule="evenodd" d="M31.5014 306.625C28.3755 306.627 25.1826 305.824 22.05 303.475L25.2 299.275C27.3174 300.863 29.37 301.376 31.4986 301.375C33.6272 301.374 35.6844 300.862 37.8 299.275L40.95 303.475C37.8157 305.826 34.6183 306.623 31.5014 306.625Z" fill="#2F3AB5"/>
<path d="M18.375 292.188C18.375 290.013 20.1379 288.25 22.3125 288.25C24.4871 288.25 26.25 290.013 26.25 292.188C26.25 294.362 24.4871 296.125 22.3125 296.125C20.1379 296.125 18.375 294.362 18.375 292.188Z" fill="#2F3AB5"/>
<path d="M36.75 292.188C36.75 290.013 38.5129 288.25 40.6875 288.25C42.8621 288.25 44.625 290.013 44.625 292.188C44.625 294.362 42.8621 296.125 40.6875 296.125C38.5129 296.125 36.75 294.362 36.75 292.188Z" fill="#2F3AB5"/>
<rect width="63" height="63" transform="translate(0 443)" fill="white"/>
<path fill-rule="evenodd" clip-rule="evenodd" d="M22.9916 456.125H40.0084C42.1215 456.125 43.8654 456.125 45.286 456.241C46.7616 456.362 48.1179 456.62 49.3919 457.269C51.3676 458.276 52.9739 459.882 53.9806 461.858C54.6297 463.132 54.8884 464.488 55.009 465.964C55.1251 467.385 55.125 469.129 55.125 471.242V483.008C55.125 485.121 55.1251 486.865 55.009 488.286C54.8884 489.762 54.6297 491.118 53.9806 492.392C52.9739 494.368 51.3676 495.974 49.3919 496.981C48.1179 497.63 46.7616 497.888 45.286 498.009C43.8654 498.125 42.1214 498.125 40.0084 498.125H22.9917C20.8786 498.125 19.1346 498.125 17.714 498.009C16.2385 497.888 14.8821 497.63 13.6081 496.981C11.6324 495.974 10.0261 494.368 9.01943 492.392C8.3703 491.118 8.11156 489.762 7.99101 488.286C7.87494 486.865 7.87497 485.121 7.875 483.008V471.242C7.87497 469.129 7.87494 467.385 7.99101 465.964C8.11156 464.488 8.3703 463.132 9.01943 461.858C10.0261 459.882 11.6324 458.276 13.6081 457.269C14.8821 456.62 16.2385 456.362 17.714 456.241C19.1346 456.125 20.8785 456.125 22.9916 456.125ZM18.1415 461.474C16.9906 461.568 16.4021 461.738 15.9916 461.947C15.0037 462.451 14.2006 463.254 13.6972 464.242C13.488 464.652 13.3176 465.241 13.2236 466.391C13.127 467.573 13.125 469.101 13.125 471.35V482.9C13.125 485.149 13.127 486.677 13.2236 487.859C13.3176 489.009 13.488 489.598 13.6972 490.008C14.2006 490.996 15.0037 491.799 15.9916 492.303C16.4021 492.512 16.9906 492.682 18.1415 492.776C19.323 492.873 20.8515 492.875 23.1 492.875H39.9C42.1485 492.875 43.677 492.873 44.8585 492.776C46.0094 492.682 46.5979 492.512 47.0085 492.303C47.9963 491.799 48.7995 490.996 49.3028 490.008C49.512 489.598 49.6824 489.009 49.7764 487.859C49.873 486.677 49.875 485.149 49.875 482.9V471.35C49.875 469.101 49.873 467.573 49.7764 466.391C49.6824 465.241 49.512 464.652 49.3028 464.242C48.7995 463.254 47.9963 462.451 47.0085 461.947C46.5979 461.738 46.0094 461.568 44.8585 461.474C43.677 461.377 42.1485 461.375 39.9 461.375H23.1C20.8515 461.375 19.323 461.377 18.1415 461.474Z" fill="#2F3AB5"/>
<path fill-rule="evenodd" clip-rule="evenodd" d="M26.2501 449.379L26.25 450.875L21 450.875L21.0002 447.195L21.7304 446.433C22.367 445.769 23.3167 444.804 24.9766 444.084C26.582 443.387 28.6522 443 31.5001 443C34.3481 443 36.4183 443.387 38.0236 444.084C39.6836 444.804 40.6331 445.769 41.2697 446.433L42 447.195V450.875H36.75V449.379C36.5177 449.197 36.2629 449.043 35.9339 448.9C35.1993 448.581 33.902 448.25 31.5001 448.25C29.0982 448.25 27.8009 448.581 27.0662 448.9C26.7372 449.043 26.4825 449.197 26.2501 449.379Z" fill="#2F3AB5"/>
<path fill-rule="evenodd" clip-rule="evenodd" d="M31.5014 487.625C28.3755 487.627 25.1826 486.824 22.05 484.475L25.2 480.275C27.3174 481.863 29.37 482.376 31.4986 482.375C33.6272 482.374 35.6844 481.862 37.8 480.275L40.95 484.475C37.8157 486.826 34.6183 487.623 31.5014 487.625Z" fill="#2F3AB5"/>
<path d="M18.375 473.188C18.375 471.013 20.1379 469.25 22.3125 469.25C24.4871 469.25 26.25 471.013 26.25 473.188C26.25 475.362 24.4871 477.125 22.3125 477.125C20.1379 477.125 18.375 475.362 18.375 473.188Z" fill="#2F3AB5"/>
<path d="M36.75 473.188C36.75 471.013 38.5129 469.25 40.6875 469.25C42.8621 469.25 44.625 471.013 44.625 473.188C44.625 475.362 42.8621 477.125 40.6875 477.125C38.5129 477.125 36.75 475.362 36.75 473.188Z" fill="#2F3AB5"/>
<rect width="63" height="63" transform="translate(0 99)" fill="white"/>
<path fill-rule="evenodd" clip-rule="evenodd" d="M22.9916 112.125H40.0084C42.1215 112.125 43.8654 112.125 45.286 112.241C46.7616 112.362 48.1179 112.62 49.3919 113.269C51.3676 114.276 52.9739 115.882 53.9806 117.858C54.6297 119.132 54.8884 120.488 55.009 121.964C55.1251 123.385 55.125 125.129 55.125 127.242V139.008C55.125 141.121 55.1251 142.865 55.009 144.286C54.8884 145.762 54.6297 147.118 53.9806 148.392C52.9739 150.368 51.3676 151.974 49.3919 152.981C48.1179 153.63 46.7616 153.888 45.286 154.009C43.8654 154.125 42.1214 154.125 40.0084 154.125H22.9917C20.8786 154.125 19.1346 154.125 17.714 154.009C16.2385 153.888 14.8821 153.63 13.6081 152.981C11.6324 151.974 10.0261 150.368 9.01943 148.392C8.3703 147.118 8.11156 145.762 7.99101 144.286C7.87494 142.865 7.87497 141.121 7.875 139.008V127.242C7.87497 125.129 7.87494 123.385 7.99101 121.964C8.11156 120.488 8.3703 119.132 9.01943 117.858C10.0261 115.882 11.6324 114.276 13.6081 113.269C14.8821 112.62 16.2385 112.362 17.714 112.241C19.1346 112.125 20.8785 112.125 22.9916 112.125ZM18.1415 117.474C16.9906 117.568 16.4021 117.738 15.9916 117.947C15.0037 118.451 14.2006 119.254 13.6972 120.242C13.488 120.652 13.3176 121.241 13.2236 122.391C13.127 123.573 13.125 125.101 13.125 127.35V138.9C13.125 141.149 13.127 142.677 13.2236 143.859C13.3176 145.009 13.488 145.598 13.6972 146.008C14.2006 146.996 15.0037 147.799 15.9916 148.303C16.4021 148.512 16.9906 148.682 18.1415 148.776C19.323 148.873 20.8515 148.875 23.1 148.875H39.9C42.1485 148.875 43.677 148.873 44.8585 148.776C46.0094 148.682 46.5979 148.512 47.0085 148.303C47.9963 147.799 48.7995 146.996 49.3028 146.008C49.512 145.598 49.6824 145.009 49.7764 143.859C49.873 142.677 49.875 141.149 49.875 138.9V127.35C49.875 125.101 49.873 123.573 49.7764 122.391C49.6824 121.241 49.512 120.652 49.3028 120.242C48.7995 119.254 47.9963 118.451 47.0085 117.947C46.5979 117.738 46.0094 117.568 44.8585 117.474C43.677 117.377 42.1485 117.375 39.9 117.375H23.1C20.8515 117.375 19.323 117.377 18.1415 117.474Z" fill="#2F3AB5"/>
<path fill-rule="evenodd" clip-rule="evenodd" d="M26.2501 105.379L26.25 106.875L21 106.875L21.0002 103.195L21.7304 102.433C22.367 101.769 23.3167 100.804 24.9766 100.084C26.582 99.387 28.6522 99 31.5001 99C34.3481 99 36.4183 99.3871 38.0236 100.084C39.6836 100.804 40.6331 101.769 41.2697 102.433L42 103.195V106.875H36.75V105.379C36.5177 105.197 36.2629 105.043 35.9339 104.9C35.1993 104.581 33.902 104.25 31.5001 104.25C29.0982 104.25 27.8009 104.581 27.0662 104.9C26.7372 105.043 26.4825 105.197 26.2501 105.379Z" fill="#2F3AB5"/>
<path fill-rule="evenodd" clip-rule="evenodd" d="M31.5014 143.625C28.3755 143.627 25.1826 142.824 22.05 140.475L25.2 136.275C27.3174 137.863 29.37 138.376 31.4986 138.375C33.6272 138.374 35.6844 137.862 37.8 136.275L40.95 140.475C37.8157 142.826 34.6183 143.623 31.5014 143.625Z" fill="#2F3AB5"/>
<path d="M18.375 129.188C18.375 127.013 20.1379 125.25 22.3125 125.25C24.4871 125.25 26.25 127.013 26.25 129.188C26.25 131.362 24.4871 133.125 22.3125 133.125C20.1379 133.125 18.375 131.362 18.375 129.188Z" fill="#2F3AB5"/>
<path d="M36.75 129.188C36.75 127.013 38.5129 125.25 40.6875 125.25C42.8621 125.25 44.625 127.013 44.625 129.188C44.625 131.362 42.8621 133.125 40.6875 133.125C38.5129 133.125 36.75 131.362 36.75 129.188Z" fill="#2F3AB5"/>
<defs>
<filter id="filter0_d_4_26" x="129" y="36" width="395" height="547" filterUnits="userSpaceOnUse" color-interpolation-filters="sRGB">
<feFlood flood-opacity="0" result="BackgroundImageFix"/>
<feColorMatrix in="SourceAlpha" type="matrix" values="0 0 0 0 0 0 0 0 0 0 0 0 0 0 0 0 0 0 127 0" result="hardAlpha"/>
<feOffset dy="4"/>
<feGaussianBlur stdDeviation="2"/>
<feComposite in2="hardAlpha" operator="out"/>
<feColorMatrix type="matrix" values="0 0 0 0 0 0 0 0 0 0 0 0 0 0 0 0 0 0 0.25 0"/>
<feBlend mode="normal" in2="BackgroundImageFix" result="effect1_dropShadow_4_26"/>
<feBlend mode="normal" in="SourceGraphic" in2="effect1_dropShadow_4_26" result="shape"/>
</filter>
</defs>
</svg>
